<svg preserveAspectRatio="none" width="100%" height="100%" overflow="visible" style="display: block;" viewBox="0 0 16.6667 16.6667" fill="none" xmlns="http://www.w3.org/2000/svg">
<path id="&#231;&#159;&#162;&#233;&#135;&#143;" fill-rule="evenodd" clip-rule="evenodd" d="M16.6667 15C16.6667 15.9205 15.9205 16.6667 15 16.6667H1.66667C0.746193 16.6667 0 15.9205 0 15V2.5C0 1.57953 0.746192 0.833333 1.66667 0.833333H4.375V0.416667C4.375 0.186548 4.56155 0 4.79167 0H5.20833C5.43845 0 5.625 0.186548 5.625 0.416667V0.833333H11.0417V0.416667C11.0417 0.186548 11.2282 0 11.4583 0H11.875C12.1051 0 12.2917 0.186548 12.2917 0.416667V0.833333H15C15.9205 0.833333 16.6667 1.57953 16.6667 2.5V15ZM4.79167 2.91667C4.56155 2.91667 4.375 2.73012 4.375 2.5V2.08333H1.66667C1.43655 2.08333 1.25 2.26988 1.25 2.5V5H15.4167V2.5C15.4167 2.26988 15.2301 2.08333 15 2.08333H12.2917V2.5C12.2917 2.73012 12.1051 2.91667 11.875 2.91667H11.4583C11.2282 2.91667 11.0417 2.73012 11.0417 2.5V2.08333H5.625V2.5C5.625 2.73012 5.43845 2.91667 5.20833 2.91667H4.79167ZM1.25 6.25V15C1.25 15.2301 1.43655 15.4167 1.66667 15.4167H15C15.2301 15.4167 15.4167 15.2301 15.4167 15V6.25H1.25Z" fill="var(--fill-0, #1B1B1B)" style="fill:#1B1B1B;fill:color(display-p3 0.1059 0.1059 0.1059);fill-opacity:1;"/>
</svg>
